/* XPM */
static char *result[] = {
/* columns rows colors chars-per-pixel */
"32 32 4 1 ",
"  c #46425E",
". c #D17C7C",
"X c #5B768D",
"o c None",
/* pixels */
"oooooooooooooooXXooooooooooooooo",
"ooooooooooooooX  Xoooooooooooooo",
"oooooooooooooX    Xooooooooooooo",
"ooooooooooooX X  X Xoooooooooooo",
"oooooooooooX XX  XX Xooooooooooo",
"ooooooooooXXX      XXXoooooooooo",
"ooooooooooX  XX  XX  Xoooooooooo",
"ooooooooooX    XX    Xoooooooooo",
"ooooooooooX X     XX Xoooooooooo",
"ooooooooooX  XX  X X Xoooooooooo",
"ooooooooooX X X   X  Xoooooooooo",
"ooooooooooX  X   X X Xoooooooooo",
"ooooooooooX XXX   XX Xoooooooooo",
"ooooooooooX   X  X   Xoooooooooo",
"ooooooooooX XX     X Xoooooooooo",
"ooooooooooX   X  XX  Xoooooooooo",
"ooooooooooX  X    XX Xoooooooooo",
"ooooooooooX X X  X   Xoooooooooo",
"ooooooooooX  XX   XX Xoooooooooo",
"oooooooo  X X    XX  X  oooooooo",
"oooooo    X X X    X X    oooooo",
"oooo     .X  X   XX  X.     oooo",
"oo     .. X X X    X X ..     oo",
"     ..   X   X  X   X   ..     ",
"XX     ..  XX      XX  ..     XX",
"ooXX     ..  XX  XX  ..     XXoo",
"ooooXX     ..  XX  ..     XXoooo",
"ooooooXX     ..  ..     XXoooooo",
"ooooooooXX     ..     XXoooooooo",
"ooooooooooXX        XXoooooooooo",
"ooooooooooooXX    XXoooooooooooo",
"ooooooooooooooXXXXoooooooooooooo"
};
