/* XPM */
static char *result[] = {
/* columns rows colors chars-per-pixel */
"64 32 3 1 ",
"  c #46425E",
". c #5B768D",
"X c None",
/* pixels */
"XXXXXXXXXXXXXXXXXXXXXXXXXXXXXXXXXXXXXXXXXXXXXXXXXXXXXXXXXXXXXXXX",
"XXXXXXXXXXXXXX....XXXXXXXXXXXXXXXXXXXXXXXXXXXXXXXXXXXXXXXXXXXXXX",
"XXXXXXXXXXXX........XXXXXXXXXXXXXXXXXXXXXXXXXXXXXXXXXXXXXXXXXXXX",
"XXXXXXXXXX............XXXXXXXXXXXXXXXXXXXXXXXXXXXXXXXXXXXXXXXXXX",
"XXXXXXXX........ .......XXXXXXXXXXXXXXXXXXXXXXXXXXXXXXXXXXXXXXXX",
"XXXXXX......... . ........XXXXXXXXXXXXXXXXXXXXXXXXXXXXXXXXXXXXXX",
"XXXX........................XXXXXXXXXXXXXXXXXXXXXXXXXXXXXXXXXXXX",
"XX............................XXXXXXXXXXXXXXXXXXXXXXXXXXXXXXXXXX",
"......... ......................XXXXXXXXXXXXXX....XXXXXXXXXXXXXX",
"........ . .....................XXXXXXXXXXXX........XXXXXXXXXXXX",
". .................. ......... .XXXXXXXXXX............XXXXXXXXXX",
"  . ............... . ...... .  XXXXXXXX........ .......XXXXXXXX",
".   . .................... .   .XXXXXX......... . ........XXXXXX",
"  .   . ................ .   .  XXXX........................XXXX",
"        . ............ . .   .  XX............................XX",
"  .   .   . ........ .          ......... ......................",
"  .   .     . .... .     .   .  ........ . .....................",
"          .     .    .          . .................. ......... .",
"      .     . .    .     .   .    . ............... . ...... .  ",
". .       . . . .  .         . ..   . .................... .   .",
"  .       .                       .   . ................ .   .  ",
".   .         .    .       .   ..       . ............ . .     .",
". .                          . .. .   .   . ........ .       . .",
"... .   . .            .   . ...... . .     . .... .   .   . ...",
"  ... .   .      .       . ...    ... .   .      .       . ...  ",
"XX  ... .   .      .   . ...  XXXX  ... .   .      .   . ...  XX",
"XXXX  ... .      .   . ...  XXXXXXXX  ... .      .   . ...  XXXX",
"XXXXXX  ... . .  . . ...  XXXXXXXXXXXX  ... . .  . . ...  XXXXXX",
"XXXXXXXX  ...    . ...  XXXXXXXXXXXXXXXX  ...    . ...  XXXXXXXX",
"XXXXXXXXXX  ........  XXXXXXXXXXXXXXXXXXXX  ........  XXXXXXXXXX",
"XXXXXXXXXXXX  ....  XXXXXXXXXXXXXXXXXXXXXXXX  ....  XXXXXXXXXXXX",
"XXXXXXXXXXXXXX    XXXXXXXXXXXXXXXXXXXXXXXXXXXX    XXXXXXXXXXXXXX"
};
