/* XPM */
static char *result[] = {
/* columns rows colors chars-per-pixel */
"32 32 3 1 ",
"  c #46425E",
". c #5B768D",
"X c None",
/* pixels */
"XXXXXXXXXXXXXXXXXXXXXXXXXXXXXXXX",
"XXXXXXXXXXXXXXXXXXXXXXXXXXXXXXXX",
"XXXXXXXXXXXXXXXXXXXXXXXXXXXXXXXX",
"XXXXXXXXXXXXXXXXXXXXXXXXXXXXXXXX",
"XXXXXXXXXXXXXXXXXXXXXXXXXXXXXXXX",
"XXXXXXXXXXXXXXXXXXXXXXXXXXXXXXXX",
"XXXXXXXXXXXXXXXXXXXXXXXXXXXXXXXX",
"XXXXXXXXXXXXXXXXXXXXXXXXXXXXXXXX",
"XXXXXXXXXXXXXXXXXXXXXXXXXXXXXXXX",
"..XXXXXXXXXXXXXXXXXXXXXXXXXXXX..",
"  ..XXXXXXXXXXXXXXXXXXXXXXXX..  ",
"..  ..XXXXXXXXXXXXXXXXXXXX..  ..",
".X..  ..XXXXXXXXXXXXXXXX..  ...X",
".X.X..  ..XXXXXXXXXXXX..  ...X.X",
"XX.X.X..  ..XXXXXXXX..  ...X.X.X",
".XXX.X.X..  ..XXXX..  ...X.X.XXX",
"XXXXXX.X.X..  ....  ...X.XXXXXXX",
"XX.XXX.X.X.X..    ...X.XXXXX.XXX",
"XXXXXXXXXX.X.X.....X.XXX.XXXXXXX",
"XXXXXX.XXX.X.X.X.X.X.X.XXXXXXXXX",
"XXXXXXXXXXXXXX.X.XXXXXXXXXXXXXXX",
"XXXXXXXXXXXX.XXXXXXX.XXXXXXXXXXX",
"XXXXXXXXXXXXXXXX.XXXXXXXXXXXXXXX",
"XXXXXXXXXXXXXXXXXXXXXXXXXXXXXXXX",
"XXXXXXXXXXXXXXXXXXXXXXXXXXXXXXXX",
"XXXXXXXXXXXXXXXXXXXXXXXXXXXXXXXX",
"XXXXXXXXXXXXXXXXXXXXXXXXXXXXXXXX",
"XXXXXXXXXXXXXXXXXXXXXXXXXXXXXXXX",
"XXXXXXXXXXXXXXXXXXXXXXXXXXXXXXXX",
"XXXXXXXXXXXXXXXXXXXXXXXXXXXXXXXX",
"XXXXXXXXXXXXXXXXXXXXXXXXXXXXXXXX",
"XXXXXXXXXXXXXXXXXXXXXXXXXXXXXXXX"
};
